<svg id="Layer_1" data-name="Layer 1" xmlns="http://www.w3.org/2000/svg" viewBox="0 0 94.33 50.96"><defs><style>.cls-1,.cls-10,.cls-11,.cls-12,.cls-13,.cls-14,.cls-15,.cls-16,.cls-17,.cls-18,.cls-19,.cls-2,.cls-20,.cls-3,.cls-4,.cls-5,.cls-6,.cls-7,.cls-8,.cls-9{fill:none;stroke:#98f0e2;stroke-miterlimit:10;stroke-width:0.1px;}.cls-2{stroke-dasharray:0.62 0.62;}.cls-3{stroke-dasharray:0.59 0.59;}.cls-4{stroke-dasharray:0.55 0.55;}.cls-5{stroke-dasharray:0.53 0.53;}.cls-6{stroke-dasharray:0.57 0.57;}.cls-7{stroke-dasharray:0.59 0.59;}.cls-8{stroke-dasharray:0.57 0.57;}.cls-9{stroke-dasharray:0.54 0.54;}.cls-10{stroke-dasharray:0.5 0.5;}.cls-11{stroke-dasharray:0.52 0.52;}.cls-12{stroke-dasharray:0.52 0.52;}.cls-13{stroke-dasharray:0.52 0.52;}.cls-14{stroke-dasharray:0.47 0.47;}.cls-15{stroke-dasharray:0.47 0.47;}.cls-16{stroke-dasharray:0.47 0.47;}.cls-17{stroke-dasharray:0.47 0.47;}.cls-18{stroke-dasharray:0.47 0.47;}.cls-19{stroke-dasharray:0.47 0.47;}.cls-20{stroke-dasharray:0.47 0.47;}</style></defs><title>guitar</title><path class="cls-1" d="M93,30.39l-.25-.05-.11-.23" transform="translate(-1.89 -28.4)"/><path class="cls-2" d="M92.24,29.62a.68.68,0,0,0-.41-.15.72.72,0,0,0-.41.26" transform="translate(-1.89 -28.4)"/><path class="cls-1" d="M91.23,30a1.91,1.91,0,0,0-.14.21c-.13,0-.36-.08-.36-.08a1.94,1.94,0,0,0-.09-.23" transform="translate(-1.89 -28.4)"/><path class="cls-3" d="M90.28,29.41a1,1,0,0,0-.23-.12.59.59,0,0,0-.58.19" transform="translate(-1.89 -28.4)"/><path class="cls-1" d="M89.29,29.72a.49.49,0,0,0-.07.23c-.13.08-.34,0-.34,0a.92.92,0,0,0-.09-.23" transform="translate(-1.89 -28.4)"/><path class="cls-4" d="M88.41,29.3l-.2-.09a.59.59,0,0,0-.58.14" transform="translate(-1.89 -28.4)"/><path class="cls-1" d="M87.45,29.57a1.34,1.34,0,0,0-.12.22l-.34,0a1.58,1.58,0,0,0-.12-.21" transform="translate(-1.89 -28.4)"/><path class="cls-5" d="M86.51,29.15l-.17-.08a.68.68,0,0,0-.57.12" transform="translate(-1.89 -28.4)"/><path class="cls-1" d="M85.59,29.38a.85.85,0,0,0-.09.24,1.67,1.67,0,0,0-.48,0,1.57,1.57,0,0,0-.07-.23" transform="translate(-1.89 -28.4)"/><path class="cls-6" d="M84.58,28.93a.54.54,0,0,0-.26-.09.59.59,0,0,0-.54.16" transform="translate(-1.89 -28.4)"/><path class="cls-1" d="M83.6,29.23a1.37,1.37,0,0,0-.1.23l-.4-.08a.74.74,0,0,0,0-.24" transform="translate(-1.89 -28.4)"/><path class="cls-7" d="M82.68,28.68a.75.75,0,0,0-.32-.08.7.7,0,0,0-.52.16" transform="translate(-1.89 -28.4)"/><path class="cls-1" d="M81.65,29a.72.72,0,0,0-.07.23h-.33a1.49,1.49,0,0,0-.07-.24" transform="translate(-1.89 -28.4)"/><path class="cls-8" d="M80.85,28.53a.42.42,0,0,0-.26-.08.65.65,0,0,0-.52.21" transform="translate(-1.89 -28.4)"/><path class="cls-1" d="M79.88,28.87l-.13.21-.24,0" transform="translate(-1.89 -28.4)"/><path class="cls-9" d="M79,29l-.47-.06a.3.3,0,0,0-.12.28A4,4,0,0,1,76.79,32" transform="translate(-1.89 -28.4)"/><path class="cls-1" d="M76.56,32.1l-.12.06h0l-.22.12" transform="translate(-1.89 -28.4)"/><path class="cls-10" d="M75.78,32.52,44.93,49.91s-1.28.8-3.28-1.26a2,2,0,0,0-2.8-.31c-1.43,1.1-6.06,4.85-7,5.36s-1.66.54-3.66.59-25.68.92-25.68.92-.85.17-.57.9c0,0,7.86,13,26.52,23.07.45.18.85.28,1.53-.49s7.14-8.49,9-10.62a3.52,3.52,0,0,1,1.55-.82c.78-.2,18.1-4,18.1-4A1.31,1.31,0,0,0,59.09,61c-1.34-1-9.71-2.72-10.61-3.47a2.31,2.31,0,0,1,.11-2.66,3.93,3.93,0,0,0,.82-1.18c.07-.27.71-.76.84-.83L79,35.45a1.81,1.81,0,0,1,.78-.28,16.69,16.69,0,0,0,2.7-.52,35.8,35.8,0,0,1,6.17-1,34,34,0,0,1,6.38.34c.33,0,1.1-.1,1.1-1.34a4.13,4.13,0,0,0-3-2.19" transform="translate(-1.89 -28.4)"/><path class="cls-11" d="M24.78,72.28a1.17,1.17,0,1,1,.41-1.6A1.17,1.17,0,0,1,24.78,72.28Z" transform="translate(-1.89 -28.4)"/><path class="cls-12" d="M29.15,71.46a1.17,1.17,0,1,1,.41-1.6A1.17,1.17,0,0,1,29.15,71.46Z" transform="translate(-1.89 -28.4)"/><path class="cls-13" d="M33.38,70.6a1.17,1.17,0,1,1-1.18-2,1.17,1.17,0,1,1,1.18,2Z" transform="translate(-1.89 -28.4)"/><path class="cls-14" d="M80.54,30.73a.44.44,0,0,1-.61-.17A.45.45,0,0,1,80.1,30a.45.45,0,0,1,.44.78Z" transform="translate(-1.89 -28.4)"/><path class="cls-15" d="M82.47,30.91a.45.45,0,0,1-.61-.17.44.44,0,0,1,.17-.61.45.45,0,0,1,.61.17A.45.45,0,0,1,82.47,30.91Z" transform="translate(-1.89 -28.4)"/><path class="cls-16" d="M84.26,31a.44.44,0,0,1-.61-.17.45.45,0,0,1,.17-.61.45.45,0,0,1,.61.17A.44.44,0,0,1,84.26,31Z" transform="translate(-1.89 -28.4)"/><path class="cls-17" d="M86.19,31.22a.45.45,0,0,1-.61-.17.44.44,0,0,1,.17-.61.44.44,0,0,1,.61.17A.45.45,0,0,1,86.19,31.22Z" transform="translate(-1.89 -28.4)"/><path class="cls-18" d="M88.12,31.39a.44.44,0,0,1-.61-.17.44.44,0,0,1,.17-.61.45.45,0,0,1,.61.17A.45.45,0,0,1,88.12,31.39Z" transform="translate(-1.89 -28.4)"/><path class="cls-19" d="M90.05,31.56a.45.45,0,0,1-.62-.17.45.45,0,0,1,.17-.61.46.46,0,0,1,.62.17A.45.45,0,0,1,90.05,31.56Z" transform="translate(-1.89 -28.4)"/><path class="cls-20" d="M92,31.74a.45.45,0,0,1-.44-.78.45.45,0,1,1,.44.78Z" transform="translate(-1.89 -28.4)"/></svg>